<svg height="512" viewBox="0 0 510 510" width="512" xmlns="http://www.w3.org/2000/svg" xmlns:xlink="http://www.w3.org/1999/xlink">
  <linearGradient id="a">
    <stop offset="0" stop-color="#dc4955"/>
    <stop offset="1" stop-color="#c4237c"/>
  </linearGradient>
  <linearGradient id="e" gradientUnits="userSpaceOnUse" x1="145.4" x2="320.3" xlink:href="#a" y1="171.5" y2="346.4"/>
  <linearGradient id="b">
    <stop offset="0" stop-color="#e38523"/>
    <stop offset="1" stop-color="#c4237c"/>
  </linearGradient>
  <linearGradient id="f" gradientUnits="userSpaceOnUse" x1="126.4" x2="294.5" xlink:href="#b" y1="176.6" y2="344.7"/>
  <linearGradient id="c">
    <stop offset="0" stop-color="#8a1958" stop-opacity="0"/>
    <stop offset="1" stop-color="#8a1958"/>
  </linearGradient>
  <linearGradient id="g" gradientUnits="userSpaceOnUse" x1="254.9" x2="254.9" xlink:href="#c" y1="390.2" y2="493.8"/>
  <linearGradient id="h" gradientUnits="userSpaceOnUse" x1="155.7" x2="300.9" xlink:href="#c" y1="86.3" y2="231.4"/>
  <linearGradient id="i" gradientUnits="userSpaceOnUse" x1="254.2" x2="254.9" xlink:href="#a" y1="509.7" y2="510.5"/>
  <linearGradient id="j" gradientUnits="userSpaceOnUse" x1="439.6" x2="316.8" xlink:href="#c" y1="525.4" y2="402.6"/>
  <linearGradient id="k" gradientUnits="userSpaceOnUse" x1="171" x2="325.9" y1="256.9" y2="411.7">
    <stop offset="0" stop-color="#f7e07d"/>
    <stop offset="1" stop-color="#e69642"/>
  </linearGradient>
  <linearGradient id="l" gradientUnits="userSpaceOnUse" x1="49.9" x2="106.5" xlink:href="#b" y1="136.5" y2="193.1"/>
  <linearGradient id="d">
    <stop offset="0" stop-color="#d52c1c" stop-opacity="0"/>
    <stop offset=".3" stop-color="#d12c1e" stop-opacity=".3"/>
    <stop offset=".6" stop-color="#c42c23" stop-opacity=".6"/>
    <stop offset=".9" stop-color="#af2b2c" stop-opacity=".9"/>
    <stop offset="1" stop-color="#a42b31"/>
  </linearGradient>
  <linearGradient id="m" gradientUnits="userSpaceOnUse" x1="255" x2="255" xlink:href="#d" y1="393" y2="482.1"/>
  <linearGradient id="n" gradientUnits="userSpaceOnUse" x1="229.3" x2="303.9" xlink:href="#d" y1="363.3" y2="288.8"/>
  <path d="M347 71c-26-42-58-71-92-71-74 0-136 136-157 245l-13-17a31 31 0 00-56 13 229 229 0 00224 269h3a229 229 0 0091-439z" fill="url(#e)"/>
  <path d="M375 331c0 69-54 125-120 125s-120-56-120-125 54-200 120-200 120 131 120 200z" fill="url(#f)"/>
  <path d="M49 381c36 76 114 128 205 129h2c90 0 168-53 205-129H49z" fill="url(#g)"/>
  <path d="M177 281c75 0 136-88 136-196 0-13 13-22 25-18l9 4c-26-42-58-71-92-71-74 0-136 136-157 245 23 22 50 36 79 36z" fill="url(#h)"/>
  <path d="M254 510h0z" fill="url(#i)"/>
  <path d="M465 373l-92-91a74 74 0 00-56-26 77 77 0 00-61 30l-8-8a74 74 0 00-112 6 84 84 0 00-16 67c4 28 20 54 46 78l80 81h10c93 0 173-56 209-137z" fill="url(#j)"/>
  <path d="M255 484c-5 0-10-1-14-3-14-7-40-22-65-43-33-27-52-57-57-88-5-24 1-48 16-67a74 74 0 0159-28 77 77 0 0161 30 78 78 0 0165-30c22 1 41 11 55 28 15 19 21 43 16 67-5 31-24 61-57 88-25 21-51 36-65 43-4 2-9 3-14 3z" fill="url(#k)"/>
  <circle cx="69.4" cy="156" fill="url(#l)" r="29.5"/>
  <path d="M129 381c9 20 25 39 47 57 25 21 51 36 65 43a33 33 0 0028 0c14-7 40-22 65-43 22-18 38-37 47-57z" fill="url(#m)"/>
  <path d="M255 398a80 80 0 010-113 78 78 0 00-65-30c-22 1-41 11-55 28a84 84 0 00-16 67c5 31 24 61 57 88 25 21 51 36 65 43a33 33 0 0028 0c10-5 26-14 43-26z" fill="url(#n)"/>
</svg>
