<?xml version="1.0" standalone="no"?>
<!DOCTYPE svg PUBLIC "-//W3C//DTD SVG 20010904//EN"
 "http://www.w3.org/TR/2001/REC-SVG-20010904/DTD/svg10.dtd">
<svg version="1.0" xmlns="http://www.w3.org/2000/svg"
 width="700.000000pt" height="700.000000pt" viewBox="0 0 700.000000 700.000000"
 preserveAspectRatio="xMidYMid meet">
<metadata>
Created by potrace 1.14, written by Peter Selinger 2001-2017
</metadata>
<g transform="translate(0.000000,700.000000) scale(0.100000,-0.100000)"
fill="#000000" stroke="none">
<path d="M3341 6984 c-172 -37 -334 -115 -491 -237 -61 -48 -267 -248 -319
-311 -273 -331 -556 -832 -752 -1329 -22 -56 -44 -111 -49 -122 -8 -17 -78
-211 -110 -305 -87 -260 -179 -591 -241 -875 -26 -117 -27 -126 -28 -150 -1
-19 -2 -19 -19 2 -52 65 -68 86 -132 169 -38 50 -85 105 -105 122 -139 123
-359 135 -514 29 -140 -96 -187 -213 -219 -547 -9 -101 -9 -476 1 -575 53
-537 243 -1067 531 -1479 23 -32 46 -66 51 -75 6 -9 12 -18 15 -21 3 -3 28
-34 55 -70 115 -151 317 -360 465 -480 30 -25 57 -47 60 -50 21 -22 187 -138
287 -201 350 -220 697 -351 1158 -439 181 -34 612 -50 820 -29 453 44 906 192
1295 421 862 509 1428 1389 1537 2393 10 93 10 530 0 625 -9 82 -33 250 -42
290 -3 14 -8 36 -11 50 -23 112 -89 346 -121 430 -4 8 -7 17 -8 20 -1 3 -8 21
-17 41 -9 20 -19 47 -23 60 -14 44 -121 262 -174 353 -28 49 -51 90 -51 92 0
3 -70 106 -139 204 -25 36 -66 90 -91 120 -25 30 -54 65 -65 79 -19 23 -46 53
-131 143 -227 240 -530 461 -863 628 l-140 70 -56 87 c-206 316 -461 583 -687
721 -113 69 -251 127 -353 147 -65 14 -261 13 -324 -1z"/>
<path d="M890 5258 c-126 -20 -245 -109 -303 -227 -30 -61 -32 -73 -32 -171 0
-98 2 -109 32 -170 116 -238 410 -309 613 -149 235 185 196 550 -72 681 -45
22 -78 31 -168 43 -8 1 -40 -2 -70 -7z"/>
</g>
</svg>
